<?xml version="1.0" encoding="UTF-8" standalone="no"?>
<!-- Generator: Adobe Illustrator 23.0.3, SVG Export Plug-In . SVG Version: 6.00 Build 0)  -->

<svg
   xmlns:dc="http://purl.org/dc/elements/1.1/"
   xmlns:cc="http://creativecommons.org/ns#"
   xmlns:rdf="http://www.w3.org/1999/02/22-rdf-syntax-ns#"
   xmlns:svg="http://www.w3.org/2000/svg"
   xmlns="http://www.w3.org/2000/svg"
   xmlns:sodipodi="http://sodipodi.sourceforge.net/DTD/sodipodi-0.dtd"
   xmlns:inkscape="http://www.inkscape.org/namespaces/inkscape"
   version="1.1"
   id="Layer_1"
   x="0px"
   y="0px"
   viewBox="0 0 1144.442 302.33176"
   xml:space="preserve"
   sodipodi:docname="instaRem.svg"
   inkscape:version="0.92.4 (5da689c313, 2019-01-14)"
   width="1144.442"
   height="302.33176"><metadata
   id="metadata283"><rdf:RDF><cc:Work
       rdf:about=""><dc:format>image/svg+xml</dc:format><dc:type
         rdf:resource="http://purl.org/dc/dcmitype/StillImage" /><dc:title></dc:title></cc:Work></rdf:RDF></metadata><defs
   id="defs281">
	
	
	
</defs><sodipodi:namedview
   pagecolor="#ffffff"
   bordercolor="#666666"
   borderopacity="1"
   objecttolerance="10"
   gridtolerance="10"
   guidetolerance="10"
   inkscape:pageopacity="0"
   inkscape:pageshadow="2"
   inkscape:window-width="1920"
   inkscape:window-height="1017"
   id="namedview279"
   showgrid="false"
   inkscape:zoom="1.3503185"
   inkscape:cx="576.44197"
   inkscape:cy="154.7"
   inkscape:window-x="-8"
   inkscape:window-y="-8"
   inkscape:window-maximized="1"
   inkscape:current-layer="Layer_1"
   fit-margin-top="10"
   fit-margin-bottom="10"
   fit-margin-left="10"
   fit-margin-right="10" />
<style
   type="text/css"
   id="style184">
	.st0{fill:#00A9DF;}
	.st1{fill:#202859;}
	.st2{enable-background:new    ;}
	.st3{fill:#404042;}
	.st4{fill:#C1D62E;}
	.st5{fill:#00ACC8;}
	.st6{fill:#00CDFF;}
	.st7{fill:#22314C;}
	.st8{fill:#FA1C45;}
	.st9{fill:#FFFFFF;}
</style>
<g
   id="g194"
   transform="translate(-23.558031,-166.36825)">
		<g
   id="g188">
			<path
   style="fill:#00a9df"
   inkscape:connector-curvature="0"
   id="path186"
   d="m 136.2,457.5 c 3.8,-14.7 7.6,-29.4 11.5,-44.1 9.3,-34.9 18.7,-69.8 28.1,-104.7 0.2,-0.9 0.5,-1.7 0.7,-2.6 1.7,-8.5 -1.2,-14.4 -8,-16.2 -6.8,-1.8 -12.3,1.7 -14.7,10.2 -6.9,24.9 -13.5,49.9 -20.2,74.9 -3.2,12 -3.1,12.1 -15.2,8.9 C 100.2,379.1 82,374.5 64,369.2 32,359.8 23.4,325.8 47,302.1 c 37.3,-37.5 74.8,-74.9 112.3,-112.3 23.6,-23.5 58.2,-15.1 67.1,16.9 14.5,51.8 28.3,103.7 41.8,155.7 8.2,31.5 -16.5,56 -48.1,48.6 -0.9,-0.2 -1.8,-0.3 -2.5,-0.7 -17.1,-8.6 -29.4,-2.4 -41,11.2 -9.7,11.4 -21.2,21.2 -32,31.6 -2,2 -4.2,3.8 -6.3,5.6 -0.7,-0.3 -1.4,-0.7 -2.1,-1.2 z m 21.6,-35.7 c 0.6,0.3 1.1,0.7 1.7,1 3.1,-2.8 6.9,-5.2 9.3,-8.6 13.6,-19.2 29.7,-23.4 52.6,-14.8 23.7,8.9 42.3,-10.6 35.8,-35.3 C 243.5,312.4 229.7,260.8 215.7,209.3 209.6,187 185,180.2 168.6,196.4 c -38.4,38 -76.7,76.3 -114.7,114.7 -16.6,16.7 -9.7,41.1 13.1,47.5 14.4,4 28.9,7.9 43.4,11.7 12.3,3.3 12.2,3.2 15.4,-8.8 5.8,-21.8 11.6,-43.7 17.7,-65.5 3.7,-13.1 14.7,-19.4 27.8,-16.7 11.2,2.3 18.4,13.5 16.5,26.3 -0.5,3.5 -1.6,6.9 -2.5,10.3 -8.8,32.9 -17.6,65.8 -26.4,98.7 -0.5,2.3 -0.7,4.8 -1.1,7.2 z"
   class="st0" />
		</g>
		<g
   id="g192">
			<path
   style="fill:#00a9df"
   inkscape:connector-curvature="0"
   id="path190"
   d="m 203.8,244 c 0.1,12.1 -10.8,23.2 -23,23.2 -12.1,0 -23.2,-11.2 -23,-23.2 0.2,-11.8 10.8,-22.5 22.6,-22.7 12.1,-0.4 23.3,10.5 23.4,22.7 z m -23.2,-11.6 c -6.2,0.1 -11.8,6.1 -11.5,12.2 0.3,6 6.6,11.9 12.5,11.2 6.7,-0.8 10.6,-4.9 10.9,-11.7 0.4,-6.2 -5.7,-11.8 -11.9,-11.7 z"
   class="st0" />
		</g>
	</g><g
   id="g228"
   transform="translate(-23.558031,-166.36825)">
		<g
   id="g198">
			<path
   style="fill:#00a9df"
   inkscape:connector-curvature="0"
   id="path196"
   d="m 320.9,354.5 25.2,-114.2 h 24.3 l -25.2,114.2 z"
   class="st0" />
		</g>
		<g
   id="g202">
			<path
   style="fill:#00a9df"
   inkscape:connector-curvature="0"
   id="path200"
   d="m 446.6,354.5 -37.7,-75.7 -16.8,75.7 H 367.8 L 393,240.2 h 25 l 36.6,72.8 16.3,-72.8 h 24.3 L 470,354.4 h -23.4 z"
   class="st0" />
		</g>
		<g
   id="g206">
			<path
   style="fill:#00a9df"
   inkscape:connector-curvature="0"
   id="path204"
   d="m 490.5,335.1 15.1,-18 c 7.9,10.6 22.8,17.8 38.5,17.8 12.3,0 17.3,-7 17.3,-12.8 0,-16.1 -55.7,-13 -55.7,-46.4 0,-18.8 16.6,-37.2 44.7,-37.2 18.2,0 35.3,6.7 45.6,18.5 l -15.2,17.5 c -8.6,-9.9 -22.4,-14.6 -34.1,-14.6 -8.7,0 -15.2,5.1 -15.2,11.3 0,14.9 55.8,13 55.8,46.1 0,20.9 -16.8,39.2 -45,39.2 -22.6,0 -42.3,-8.7 -51.8,-21.4 z"
   class="st0" />
		</g>
		<g
   id="g210">
			<path
   style="fill:#00a9df"
   inkscape:connector-curvature="0"
   id="path208"
   d="m 617.9,354.5 20.6,-92.8 H 605 l 4.6,-21.4 h 91.1 l -4.6,21.4 h -33.4 l -20.4,92.8 z"
   class="st0" />
		</g>
		<g
   id="g214">
			<path
   style="fill:#00a9df"
   inkscape:connector-curvature="0"
   id="path212"
   d="m 762.1,354.5 -2.9,-19.4 h -49 l -11.3,19.4 H 670 l 69.2,-114.2 h 30.5 l 18.8,114.2 z m -11.8,-90 -28.6,49.2 h 35.6 z"
   class="st0" />
		</g>
		<g
   id="g218">
			<path
   style="fill:#202859"
   inkscape:connector-curvature="0"
   id="path216"
   d="m 864.7,354.5 -13.5,-40.6 h -18.8 l -8.9,40.6 h -24.3 l 25.2,-114.2 h 48.8 c 18.5,0 35.3,12.3 35.3,32.2 0,20.6 -14,36.3 -32.5,39.7 l 15.9,42.3 z m -2.1,-62 c 12.7,0 20.4,-7.4 20.4,-17.6 0,-7.7 -7,-13.2 -14.6,-13.2 h -24.5 l -6.9,30.8 h 25.3 z"
   class="st1" />
		</g>
		<g
   id="g222">
			<path
   style="fill:#202859"
   inkscape:connector-curvature="0"
   id="path220"
   d="m 909.2,354.5 25.2,-114.2 h 80.8 l -4.8,21.4 h -56.3 l -5.3,24 h 55.1 l -4.6,21.4 H 944 l -5.7,26 h 56.3 l -4.6,21.4 z"
   class="st1" />
		</g>
		<g
   id="g226">
			<path
   style="fill:#202859"
   inkscape:connector-curvature="0"
   id="path224"
   d="m 1108.4,354.5 18.2,-82.4 -50.4,82.4 h -10.6 l -14,-82.4 -18.2,82.4 H 1009 l 25.2,-114.2 h 33.2 l 12,71.4 43.5,-71.4 h 35.1 l -25.2,114.2 z"
   class="st1" />
		</g>
	</g>
</svg>