<svg width="64" height="64" viewBox="0 0 64 64" fill="none" xmlns="http://www.w3.org/2000/svg">
  <rect width="64" height="64" rx="12" fill="#0891b2"/>
  <path d="M16 32C16 23.163 23.163 16 32 16C40.837 16 48 23.163 48 32C48 40.837 40.837 48 32 48C23.163 48 16 40.837 16 32Z" fill="white" fill-opacity="0.1"/>
  <path d="M24 28C25.105 28 26 27.105 26 26C26 24.895 25.105 24 24 24C22.895 24 22 24.895 22 26C22 27.105 22.895 28 24 28Z" fill="white"/>
  <path d="M40 28C41.105 28 42 27.105 42 26C42 24.895 41.105 24 40 24C38.895 24 38 24.895 38 26C38 27.105 38.895 28 40 28Z" fill="white"/>
  <path d="M32 36C29.791 36 28 34.209 28 32H36C36 34.209 34.209 36 32 36Z" fill="white"/>
  <path d="M20 38C20 36.895 20.895 36 22 36H42C43.105 36 44 36.895 44 38C44 39.105 43.105 40 42 40H22C20.895 40 20 39.105 20 38Z" fill="white" fill-opacity="0.6"/>
</svg>